<svg width="1000" height="704" viewBox="0 0 1000 704" fill="none" xmlns="http://www.w3.org/2000/svg">
<g clip-path="url(#clip0_5_256)">
<path d="M196 528.118V176.333L500.655 0.440211L805.31 176.333V528.118L500.655 704.01L196 528.118ZM762.771 503.558V200.892L500.655 49.5604L238.539 200.892V503.558L500.655 654.891L762.771 503.558Z" fill="url(#paint0_linear_5_256)"/>
<path d="M445.041 413.262C446.469 425.32 452.26 434.681 462.414 441.344C472.568 448.008 485.022 451.339 499.777 451.339C510.565 451.339 520.005 449.594 528.097 446.104C536.109 442.613 542.376 437.814 546.897 431.706C551.34 425.598 553.561 418.656 553.561 410.882C553.561 404.378 552.014 398.785 548.92 394.105C545.747 389.504 541.701 385.656 536.783 382.563C531.865 379.548 526.708 377.049 521.314 375.066C515.92 373.162 510.962 371.615 506.44 370.425L481.69 363.762C475.344 362.096 468.284 359.796 460.51 356.86C452.656 353.925 445.16 349.919 438.021 344.842C430.802 339.845 424.852 333.419 420.172 325.566C415.492 317.712 413.151 308.074 413.151 296.651C413.151 283.483 416.602 271.584 423.504 260.954C430.326 250.324 440.321 241.876 453.489 235.609C466.578 229.342 482.483 226.208 501.205 226.208C518.657 226.208 533.769 229.025 546.54 234.657C559.233 240.289 569.228 248.142 576.526 258.217C583.745 268.292 587.83 279.992 588.782 293.319H558.32C557.527 284.117 554.433 276.502 549.039 270.473C543.566 264.523 536.664 260.081 528.335 257.146C519.926 254.29 510.883 252.862 501.205 252.862C489.94 252.862 479.826 254.687 470.862 258.336C461.898 262.064 454.798 267.221 449.563 273.805C444.327 280.468 441.709 288.242 441.709 297.127C441.709 305.218 443.97 311.803 448.492 316.88C453.013 321.956 458.963 326.081 466.34 329.255C473.718 332.428 481.69 335.204 490.258 337.584L520.243 346.151C539.282 351.625 554.354 359.439 565.46 369.593C576.566 379.746 582.119 393.034 582.119 409.454C582.119 423.099 578.43 434.998 571.052 445.152C563.596 455.385 553.6 463.318 541.067 468.95C528.454 474.662 514.373 477.517 498.825 477.517C483.118 477.517 469.156 474.701 456.94 469.069C444.724 463.516 435.046 455.901 427.906 446.223C420.687 436.545 416.88 425.558 416.483 413.262H445.041Z" fill="#7B2FF7"/>
<path d="M439.617 296.612C427.56 298.04 418.199 303.831 411.536 313.984C404.872 324.138 401.54 336.593 401.54 351.348C401.54 362.136 403.286 371.576 406.776 379.667C410.266 387.68 415.066 393.946 421.174 398.468C427.282 402.91 434.223 405.132 441.997 405.132C448.502 405.132 454.095 403.585 458.775 400.491C463.376 397.318 467.223 393.272 470.317 388.354C473.332 383.436 475.83 378.279 477.814 372.885C479.717 367.491 481.264 362.533 482.454 358.011L489.118 333.261C490.784 326.915 493.084 319.855 496.019 312.081C498.954 304.227 502.96 296.731 508.037 289.591C513.035 282.373 519.46 276.423 527.314 271.743C535.167 267.062 544.805 264.722 556.229 264.722C569.397 264.722 581.296 268.173 591.926 275.074C602.556 281.897 611.004 291.892 617.271 305.06C623.538 318.149 626.671 334.054 626.671 352.776C626.671 370.228 623.855 385.339 618.223 398.111C612.591 410.803 604.737 420.799 594.663 428.097C584.588 435.316 572.887 439.401 559.56 440.353V409.891C568.762 409.098 576.378 406.004 582.407 400.61C588.356 395.136 592.798 388.235 595.734 379.905C598.589 371.497 600.017 362.453 600.017 352.776C600.017 341.511 598.193 331.397 594.544 322.433C590.815 313.469 585.659 306.369 579.075 301.133C572.411 295.898 564.637 293.28 555.753 293.28C547.661 293.28 541.077 295.541 536 300.063C530.923 304.584 526.798 310.534 523.625 317.911C520.452 325.289 517.676 333.261 515.296 341.828L506.728 371.814C501.255 390.853 493.441 405.925 483.287 417.031C473.133 428.136 459.846 433.689 443.425 433.689C429.781 433.689 417.882 430.001 407.728 422.623C397.495 415.166 389.562 405.171 383.93 392.637C378.218 380.024 375.362 365.944 375.362 350.396C375.362 334.689 378.178 320.727 383.811 308.511C389.364 296.294 396.979 286.617 406.657 279.477C416.335 272.258 427.322 268.451 439.617 268.054V296.612Z" fill="#7B2FF7"/>
<rect x="804.974" y="365.314" width="22.9058" height="195.026" transform="rotate(-90 804.974 365.314)" fill="url(#paint1_linear_5_256)"/>
<rect y="366" width="23" height="196" transform="rotate(-90 0 366)" fill="url(#paint2_linear_5_256)"/>
<rect x="804.974" y="299.869" width="22.9058" height="195.026" transform="rotate(-90 804.974 299.869)" fill="url(#paint3_linear_5_256)"/>
<rect y="299.869" width="22.9058" height="196.335" transform="rotate(-90 0 299.869)" fill="url(#paint4_linear_5_256)"/>
<rect x="804.974" y="432.068" width="22.9058" height="195.026" transform="rotate(-90 804.974 432.068)" fill="url(#paint5_linear_5_256)"/>
<rect y="432" width="23" height="196" transform="rotate(-90 0 432)" fill="url(#paint6_linear_5_256)"/>
</g>
<defs>
<linearGradient id="paint0_linear_5_256" x1="500.655" y1="679.45" x2="500.655" y2="24.9999" gradientUnits="userSpaceOnUse">
<stop stop-color="#8E2DE2"/>
<stop offset="1" stop-color="#4A00E0"/>
</linearGradient>
<linearGradient id="paint1_linear_5_256" x1="816.427" y1="560.34" x2="816.427" y2="365.314" gradientUnits="userSpaceOnUse">
<stop stop-color="#8E2DE2"/>
<stop offset="1" stop-color="#4A00E0"/>
</linearGradient>
<linearGradient id="paint2_linear_5_256" x1="11.5" y1="562" x2="11.5" y2="366" gradientUnits="userSpaceOnUse">
<stop stop-color="#4A00E0"/>
<stop offset="1" stop-color="#8E2DE2"/>
</linearGradient>
<linearGradient id="paint3_linear_5_256" x1="816.427" y1="299.869" x2="816.427" y2="494.895" gradientUnits="userSpaceOnUse">
<stop stop-color="#4A00E0"/>
<stop offset="1" stop-color="#8E2DE2"/>
</linearGradient>
<linearGradient id="paint4_linear_5_256" x1="11.4529" y1="496.204" x2="11.4529" y2="299.869" gradientUnits="userSpaceOnUse">
<stop stop-color="#4A00E0"/>
<stop offset="1" stop-color="#8E2DE2"/>
</linearGradient>
<linearGradient id="paint5_linear_5_256" x1="816.427" y1="432.068" x2="816.427" y2="627.094" gradientUnits="userSpaceOnUse">
<stop stop-color="#4A00E0"/>
<stop offset="1" stop-color="#8E2DE2"/>
</linearGradient>
<linearGradient id="paint6_linear_5_256" x1="11.5" y1="628" x2="11.5" y2="432" gradientUnits="userSpaceOnUse">
<stop stop-color="#4A00E0"/>
<stop offset="1" stop-color="#8E2DE2"/>
</linearGradient>
<clipPath id="clip0_5_256">
<rect width="1000" height="704" fill="white"/>
</clipPath>
</defs>
</svg>
